<?xml version="1.0" encoding="utf-8"?>
<svg version="1.1" id="svg11531" xmlns:svg="http://www.w3.org/2000/svg"
	 xmlns="http://www.w3.org/2000/svg" xmlns:xlink="http://www.w3.org/1999/xlink" x="0px" y="0px" viewBox="0 0 51.1 49.6"
	 style="enable-background:new 0 0 51.1 49.6;" xml:space="preserve">
<style type="text/css">
	.st0{fill:#326CE5;}
	.st1{fill:#FFFFFF;}
	.st2{font-family:'ArialMT';}
	.st3{font-size:8px;}
</style>
<g id="layer1" transform="translate(-0.99262638,-1.174181)">
	<g id="g70" transform="matrix(1.0148887,0,0,1.0148887,16.902146,-2.698726)">
		<path id="path3055" class="st0" d="M9.3,5.1c-0.4,0-0.8,0.1-1.2,0.3l-16.6,7.9c-0.9,0.4-1.5,1.2-1.7,2.1l-4.1,17.8
			c-0.2,0.8,0,1.7,0.4,2.4c0.1,0.1,0.1,0.2,0.2,0.3l11.5,14.3c0.6,0.7,1.5,1.2,2.5,1.2h18.4c1,0,1.9-0.4,2.5-1.2l11.5-14.3
			c0.6-0.7,0.8-1.7,0.6-2.7l-4.1-17.8c-0.2-0.9-0.8-1.7-1.7-2.1L10.9,5.4C10.4,5.2,9.9,5.1,9.3,5.1z"/>
		<path id="path3054-2-9" class="st1" d="M9.3,3.8C8.9,3.8,8.5,4,8.1,4.1l-17.5,8.4c-0.9,0.4-1.6,1.3-1.8,2.3l-4.3,18.8
			c-0.2,0.9,0,1.8,0.5,2.5c0.1,0.1,0.1,0.2,0.2,0.3l12.1,15.1c0.6,0.8,1.6,1.2,2.6,1.2h19.4c1,0,2-0.5,2.6-1.2L34,36.4
			c0.6-0.8,0.9-1.8,0.6-2.8l-4.3-18.8c-0.2-1-0.9-1.8-1.8-2.3L11,4.1C10.5,3.9,9.9,3.8,9.3,3.8z M9.3,5.1c0.5,0,1.1,0.1,1.5,0.3
			l16.6,7.9c0.9,0.4,1.5,1.2,1.7,2.1l4.1,17.8c0.2,0.9,0,1.9-0.6,2.7L21.2,50.2c-0.6,0.7-1.5,1.2-2.5,1.2H0.3c-1,0-1.9-0.4-2.5-1.2
			l-11.5-14.3c-0.1-0.1-0.1-0.2-0.2-0.3c-0.5-0.7-0.6-1.6-0.4-2.4l4.1-17.8c0.2-0.9,0.8-1.7,1.7-2.1L8.1,5.4
			C8.5,5.2,8.9,5.1,9.3,5.1L9.3,5.1z"/>
	</g>
	<text transform="matrix(1 0 0 1 21.3461 45.5023)" class="st1 st2 st3">ctn</text>
</g>
<path class="st1" d="M37.2,27.5l-12,4.5V12.8l12,4.3V27.5z"/>
<path class="st1" d="M14.4,16v12.6l9,3.4V12.8L14.4,16z M15.4,27.7l-0.5-0.2V17.1c0.4-0.2,1.1-0.3,1.5-0.4v11.4
	C16.1,27.9,15.6,27.7,15.4,27.7z M17.6,28.4L17,28.3V16.5l2-0.5v12.9C18.6,28.7,17.9,28.5,17.6,28.4z M20.5,29.3L19.7,29V15.7
	c0.5-0.2,2.1-0.6,2.6-0.7v14.8C21.8,29.7,20.9,29.4,20.5,29.3z"/>
</svg>
