<?xml version="1.0" encoding="utf-8"?>
<svg version="1.1"
	 id="svg11531" xmlns:inkscape="http://www.inkscape.org/namespaces/inkscape" xmlns:rdf="http://www.w3.org/1999/02/22-rdf-syntax-ns#" xmlns:sodipodi="http://sodipodi.sourceforge.net/DTD/sodipodi-0.dtd" xmlns:dc="http://purl.org/dc/elements/1.1/" xmlns:cc="http://creativecommons.org/ns#" xmlns:svg="http://www.w3.org/2000/svg" inkscape:version="0.91 r13725" sodipodi:docname="api.svg"
	 xmlns="http://www.w3.org/2000/svg" xmlns:xlink="http://www.w3.org/1999/xlink" x="0px" y="0px" viewBox="0 0 51.1 49.6"
	 style="enable-background:new 0 0 51.1 49.6;" xml:space="preserve">
<g id="layer1" transform="translate(-0.99262638,-1.174181)" inkscape:groupmode="layer" inkscape:label="Calque 1">
	<g id="g70" transform="matrix(1.0148887,0,0,1.0148887,16.902146,-2.698726)">
		
			<path id="path3055" inkscape:connector-curvature="0" inkscape:export-filename="new.png" inkscape:export-xdpi="250.55" inkscape:export-ydpi="250.55" style="fill:#326CE5;" d="
			M9.3,5.1c-0.4,0-0.8,0.1-1.2,0.3l-16.6,7.9c-0.9,0.4-1.5,1.2-1.7,2.1l-4.1,17.8c-0.2,0.8,0,1.7,0.4,2.4c0.1,0.1,0.1,0.2,0.2,0.3
			l11.5,14.3c0.6,0.7,1.5,1.2,2.5,1.2h18.4c1,0,1.9-0.4,2.5-1.2l11.5-14.3c0.6-0.7,0.8-1.7,0.6-2.7l-4.1-17.8
			c-0.2-0.9-0.8-1.7-1.7-2.1L10.9,5.4C10.4,5.2,9.9,5.1,9.3,5.1z"/>
		<path id="path3054-2-9" inkscape:connector-curvature="0" style="fill:#FFFFFF;" d="M9.3,3.8C8.9,3.8,8.5,4,8.1,4.1l-17.5,8.4
			c-0.9,0.4-1.6,1.3-1.8,2.3l-4.3,18.8c-0.2,0.9,0,1.8,0.5,2.5c0.1,0.1,0.1,0.2,0.2,0.3l12.1,15.1c0.6,0.8,1.6,1.2,2.6,1.2h19.4
			c1,0,2-0.5,2.6-1.2L34,36.4c0.6-0.8,0.9-1.8,0.6-2.8l-4.3-18.8c-0.2-1-0.9-1.8-1.8-2.3L11,4.1C10.5,3.9,9.9,3.8,9.3,3.8z M9.3,5.1
			c0.5,0,1.1,0.1,1.5,0.3l16.6,7.9c0.9,0.4,1.5,1.2,1.7,2.1l4.1,17.8c0.2,0.9,0,1.9-0.6,2.7L21.2,50.2c-0.6,0.7-1.5,1.2-2.5,1.2H0.3
			c-1,0-1.9-0.4-2.5-1.2l-11.5-14.3c-0.1-0.1-0.1-0.2-0.2-0.3c-0.5-0.7-0.6-1.6-0.4-2.4l4.1-17.8c0.2-0.9,0.8-1.7,1.7-2.1L8.1,5.4
			C8.5,5.2,8.9,5.1,9.3,5.1L9.3,5.1z"/>
	</g>
	<text transform="matrix(1 0 0 1 21.3461 45.5023)" style="font-family:Arial;fill:#ffffff;font-size:8px;">ctn</text>
</g>
<path style="fill:#FFFFFF;" d="M39.1,29.3l-14,5.3V12.1l14,5V29.3z"/>
<path style="fill:#FFFFFF;" d="M12.3,15.8v14.8l10.5,4V12.1L12.3,15.8z M13.5,29.5l-0.6-0.2V17.1c0.5-0.2,1.3-0.4,1.8-0.5V30
	C14.4,29.8,13.8,29.6,13.5,29.5z M16.1,30.4l-0.7-0.2V16.4l2.3-0.6v15.1C17.3,30.7,16.5,30.5,16.1,30.4z M19.5,31.4l-0.9-0.3V15.5
	c0.6-0.2,2.4-0.7,3-0.8V32C21,31.9,20,31.6,19.5,31.4z"/>
</svg>
