<?xml version="1.0" encoding="UTF-8" standalone="no" ?>
<!DOCTYPE svg PUBLIC "-//W3C//DTD SVG 1.1//EN" "http://www.w3.org/Graphics/SVG/1.1/DTD/svg11.dtd">
<svg xmlns="http://www.w3.org/2000/svg" xmlns:xlink="http://www.w3.org/1999/xlink" version="1.1" width="640" height="480" viewBox="0 0 640 480" xml:space="preserve">
<desc>Created with Fabric.js 3.6.3</desc>
<defs>
</defs>
<g transform="matrix(0.84 0 0 0.86 241.68 192.82)"  >
<path style="stroke: none; stroke-width: 1; stroke-dasharray: none; stroke-linecap: butt; stroke-dashoffset: 0; stroke-linejoin: miter; stroke-miterlimit: 4; fill: rgb(0,0,0); fill-rule: nonzero; opacity: 1;"  transform=" translate(-287.79, -256)" d="M 147.8 192 H 480 V 144 C 480 117.5 458.5 96 432 96 h -160 l -64 -64 h -160 C 21.49 32 0 53.49 0 80 v 328.4 l 90.54 -181.1 C 101.4 205.6 123.4 192 147.8 192 z M 543.1 224 H 147.8 C 135.7 224 124.6 230.8 119.2 241.7 L 0 480 h 447.1 c 12.12 0 23.2 -6.852 28.62 -17.69 l 96 -192 C 583.2 249 567.7 224 543.1 224 z" stroke-linecap="round" />
</g>
</svg>